<svg width="70" height="70" viewBox="0 0 70 70" fill="none" xmlns="http://www.w3.org/2000/svg">
<circle cx="35" cy="35" r="35" fill="#9C9CBA"/>
<path d="M31.1844 39.9723C33.4038 39.7935 35.6335 39.7935 37.853 39.9723C39.0617 40.0428 40.2646 40.194 41.4541 40.4249C44.0282 40.9461 45.7087 41.7965 46.4289 43.1681C46.9699 44.2386 46.9699 45.5129 46.4289 46.5834C45.7087 47.955 44.0949 48.8602 41.4274 49.3266C40.2388 49.5662 39.0356 49.7221 37.8264 49.7929C36.706 49.9163 35.5857 49.9163 34.452 49.9163H32.4114C31.9846 49.8615 31.5711 49.834 31.171 49.834C29.9617 49.7718 28.7582 49.6206 27.5699 49.3814C24.9958 48.8876 23.3153 48.0098 22.5951 46.6382C22.3171 46.1069 22.1705 45.5134 22.1681 44.91C22.1625 44.303 22.3046 43.7041 22.5818 43.1681C23.2886 41.7965 24.9691 40.905 27.5699 40.4249C28.7635 40.1907 29.971 40.0394 31.1844 39.9723ZM34.5054 19.083C38.9765 19.083 42.6011 22.8105 42.6011 27.4086C42.6011 32.0066 38.9765 35.7341 34.5054 35.7341C30.0342 35.7341 26.4096 32.0066 26.4096 27.4086C26.4096 22.8105 30.0342 19.083 34.5054 19.083Z" fill="#200E32"/>
</svg>
