<svg width="26" height="26" viewBox="0 0 26 26" fill="none" xmlns="http://www.w3.org/2000/svg">
<g clip-path="url(#clip0_416_1363)">
<path d="M17.3333 14.1003H14.0833C13.4875 14.1003 13 14.5878 13 15.1836V18.4336C13 19.0294 13.4875 19.5169 14.0833 19.5169H17.3333C17.9292 19.5169 18.4167 19.0294 18.4167 18.4336V15.1836C18.4167 14.5878 17.9292 14.1003 17.3333 14.1003ZM17.3333 3.26693V4.35026H8.66667V3.26693C8.66667 2.67109 8.17917 2.18359 7.58333 2.18359C6.9875 2.18359 6.5 2.67109 6.5 3.26693V4.35026H5.41667C4.21417 4.35026 3.26083 5.32526 3.26083 6.51693L3.25 21.6836C3.25 22.8753 4.21417 23.8503 5.41667 23.8503H20.5833C21.775 23.8503 22.75 22.8753 22.75 21.6836V6.51693C22.75 5.32526 21.775 4.35026 20.5833 4.35026H19.5V3.26693C19.5 2.67109 19.0125 2.18359 18.4167 2.18359C17.8208 2.18359 17.3333 2.67109 17.3333 3.26693ZM19.5 21.6836H6.5C5.90417 21.6836 5.41667 21.1961 5.41667 20.6003V9.76693H20.5833V20.6003C20.5833 21.1961 20.0958 21.6836 19.5 21.6836Z" fill="white"/>
</g>
<defs>
<clipPath id="clip0_416_1363">
<rect width="26" height="26" fill="white"/>
</clipPath>
</defs>
</svg>
