<svg width="26" height="26" viewBox="0 0 26 26" fill="none" xmlns="http://www.w3.org/2000/svg">
<path d="M12.9994 19.5L8.0513 12.5125C7.24139 11.5562 6.71981 10.3896 6.54733 9.14834C6.37484 7.90711 6.55854 6.64242 7.07704 5.50156C7.59553 4.3607 8.42748 3.39063 9.47599 2.70432C10.5245 2.01801 11.7464 1.6437 12.9994 1.625C14.7363 1.64216 16.3957 2.34698 17.614 3.58509C18.8323 4.82319 19.5103 6.49366 19.4994 8.23063C19.5001 9.74588 18.9842 11.2161 18.0369 12.3988L12.9994 19.5ZM12.9994 3.25C11.6928 3.265 10.4455 3.79793 9.53152 4.73176C8.6175 5.66559 8.11142 6.92398 8.12443 8.23063C8.12987 9.42323 8.55894 10.5751 9.33505 11.4806L12.9994 16.6725L16.7613 11.375C17.4764 10.4824 17.8687 9.3743 17.8744 8.23063C17.8874 6.92398 17.3814 5.66559 16.4673 4.73176C15.5533 3.79793 14.306 3.265 12.9994 3.25Z" fill="#F8F8F8"/>
<path d="M13 8.9375C13.8975 8.9375 14.625 8.20996 14.625 7.3125C14.625 6.41504 13.8975 5.6875 13 5.6875C12.1025 5.6875 11.375 6.41504 11.375 7.3125C11.375 8.20996 12.1025 8.9375 13 8.9375Z" fill="#F8F8F8"/>
<path d="M22.75 9.75H21.125V11.375H22.75V22.75H3.25V11.375H4.875V9.75H3.25C2.81902 9.75 2.4057 9.92121 2.10095 10.226C1.7962 10.5307 1.625 10.944 1.625 11.375V22.75C1.625 23.181 1.7962 23.5943 2.10095 23.899C2.4057 24.2038 2.81902 24.375 3.25 24.375H22.75C23.181 24.375 23.5943 24.2038 23.899 23.899C24.2038 23.5943 24.375 23.181 24.375 22.75V11.375C24.375 10.944 24.2038 10.5307 23.899 10.226C23.5943 9.92121 23.181 9.75 22.75 9.75Z" fill="#F8F8F8"/>
</svg>
