<svg width="27" height="27" viewBox="0 0 27 27" fill="none" xmlns="http://www.w3.org/2000/svg">
<path d="M21.0938 10.125H4.21875C3.99497 10.125 3.78036 10.0361 3.62213 9.87787C3.4639 9.71964 3.375 9.50503 3.375 9.28125V5.0625C3.375 4.83872 3.4639 4.62411 3.62213 4.46588C3.78036 4.30765 3.99497 4.21875 4.21875 4.21875H21.0938C21.3175 4.21875 21.5321 4.30765 21.6904 4.46588C21.8486 4.62411 21.9375 4.83872 21.9375 5.0625V9.28125C21.9375 9.50503 21.8486 9.71964 21.6904 9.87787C21.5321 10.0361 21.3175 10.125 21.0938 10.125ZM5.0625 8.4375H20.25V5.90625H5.0625V8.4375Z" fill="white"/>
<path d="M17.7188 7.59375C17.495 7.59375 17.2804 7.50486 17.1221 7.34662C16.9639 7.18839 16.875 6.97378 16.875 6.75V3.375C16.875 3.15122 16.9639 2.93661 17.1221 2.77838C17.2804 2.62014 17.495 2.53125 17.7188 2.53125C17.9425 2.53125 18.1571 2.62014 18.3154 2.77838C18.4736 2.93661 18.5625 3.15122 18.5625 3.375V6.75C18.5625 6.97378 18.4736 7.18839 18.3154 7.34662C18.1571 7.50486 17.9425 7.59375 17.7188 7.59375ZM7.59375 7.59375C7.36997 7.59375 7.15536 7.50486 6.99713 7.34662C6.8389 7.18839 6.75 6.97378 6.75 6.75V3.375C6.75 3.15122 6.8389 2.93661 6.99713 2.77838C7.15536 2.62014 7.36997 2.53125 7.59375 2.53125C7.81753 2.53125 8.03214 2.62014 8.19037 2.77838C8.34861 2.93661 8.4375 3.15122 8.4375 3.375V6.75C8.4375 6.97378 8.34861 7.18839 8.19037 7.34662C8.03214 7.50486 7.81753 7.59375 7.59375 7.59375Z" fill="white"/>
<path d="M13.5 22.7812H5.90625C5.23492 22.7812 4.59109 22.5146 4.11639 22.0399C3.64168 21.5652 3.375 20.9213 3.375 20.25V5.0625C3.375 4.83872 3.4639 4.62411 3.62213 4.46588C3.78036 4.30765 3.99497 4.21875 4.21875 4.21875H21.0938C21.3175 4.21875 21.5321 4.30765 21.6904 4.46588C21.8486 4.62411 21.9375 4.83872 21.9375 5.0625V14.3438C21.9375 14.5675 21.8486 14.7821 21.6904 14.9404C21.5321 15.0986 21.3175 15.1875 21.0938 15.1875C20.87 15.1875 20.6554 15.0986 20.4971 14.9404C20.3389 14.7821 20.25 14.5675 20.25 14.3438V5.90625H5.0625V20.25C5.0625 20.4738 5.15139 20.6884 5.30963 20.8466C5.46786 21.0049 5.68247 21.0938 5.90625 21.0938H13.5C13.7238 21.0938 13.9384 21.1826 14.0966 21.3409C14.2549 21.4991 14.3438 21.7137 14.3438 21.9375C14.3438 22.1613 14.2549 22.3759 14.0966 22.5341C13.9384 22.6924 13.7238 22.7812 13.5 22.7812Z" fill="white"/>
<path d="M17.7188 24.4688C16.5506 24.4688 15.4087 24.1224 14.4374 23.4734C13.4661 22.8244 12.7091 21.902 12.2621 20.8227C11.8151 19.7435 11.6981 18.556 11.926 17.4102C12.1539 16.2645 12.7164 15.2122 13.5424 14.3862C14.3684 13.5601 15.4208 12.9976 16.5665 12.7697C17.7122 12.5418 18.8998 12.6588 19.979 13.1058C21.0582 13.5529 21.9806 14.3099 22.6296 15.2812C23.2786 16.2524 23.625 17.3944 23.625 18.5625C23.625 20.1289 23.0027 21.6312 21.8951 22.7389C20.7875 23.8465 19.2852 24.4688 17.7188 24.4688ZM17.7188 14.3438C16.8844 14.3438 16.0687 14.5912 15.3749 15.0547C14.6812 15.5183 14.1404 16.1772 13.8211 16.9481C13.5018 17.7189 13.4183 18.5672 13.5811 19.3855C13.7438 20.2039 14.1456 20.9556 14.7356 21.5456C15.3256 22.1356 16.0774 22.5374 16.8957 22.7002C17.7141 22.863 18.5623 22.7794 19.3332 22.4601C20.1041 22.1408 20.763 21.6001 21.2265 20.9063C21.6901 20.2125 21.9375 19.3969 21.9375 18.5625C21.9375 17.4436 21.493 16.3706 20.7019 15.5794C19.9107 14.7882 18.8376 14.3438 17.7188 14.3438Z" fill="white"/>
<path d="M20.25 19.4062H17.7188C17.495 19.4062 17.2804 19.3174 17.1221 19.1591C16.9639 19.0009 16.875 18.7863 16.875 18.5625V15.1875H18.5625V17.7188H20.25V19.4062Z" fill="white"/>
</svg>
