<svg width="24" height="24" viewBox="0 0 24 24" fill="none" xmlns="http://www.w3.org/2000/svg">
<path d="M12.1588 10.8697C12.0588 10.8597 11.9388 10.8597 11.8288 10.8697C10.681 10.8308 9.59339 10.3466 8.79638 9.5197C7.99937 8.69283 7.55549 7.5882 7.55875 6.43974C7.55875 3.98974 9.53875 1.99974 11.9988 1.99974C12.5812 1.98924 13.1599 2.09355 13.702 2.30672C14.2441 2.5199 14.7389 2.83776 15.1582 3.24216C15.5775 3.64656 15.913 4.12957 16.1455 4.66363C16.3781 5.19769 16.5032 5.77233 16.5138 6.35474C16.5243 6.93716 16.4199 7.51594 16.2068 8.05804C15.9936 8.60013 15.6757 9.09494 15.2713 9.51419C14.8669 9.93345 14.3839 10.269 13.8499 10.5015C13.3158 10.7341 12.7412 10.8592 12.1588 10.8697ZM7.15875 14.5597C4.73875 16.1797 4.73875 18.8197 7.15875 20.4297C9.90875 22.2697 14.4188 22.2697 17.1688 20.4297C19.5888 18.8097 19.5888 16.1697 17.1688 14.5597C14.4288 12.7297 9.91875 12.7297 7.15875 14.5597Z" stroke="white" stroke-width="1.5" stroke-linecap="round" stroke-linejoin="round"/>
</svg>
