<svg width="28" height="27" viewBox="0 0 28 27" fill="none" xmlns="http://www.w3.org/2000/svg">
<path d="M13.9986 8.48004H3.13198C3.01707 8.4799 2.90421 8.45066 2.80469 8.39526C2.70517 8.33986 2.62249 8.26023 2.56491 8.16434C2.50732 8.06845 2.47686 7.95966 2.47656 7.84885C2.47627 7.73804 2.50615 7.6291 2.56323 7.53293L5.17554 3.12223C5.23289 3.02557 5.31568 2.94523 5.41555 2.8893C5.51541 2.83338 5.62881 2.80385 5.74429 2.80371H13.9986C14.1726 2.80371 14.3396 2.87038 14.4626 2.98906C14.5857 3.10773 14.6549 3.26869 14.6549 3.43652C14.6549 3.60436 14.5857 3.76531 14.4626 3.88399C14.3396 4.00266 14.1726 4.06934 13.9986 4.06934H6.12623L4.26291 7.21441H13.9986C14.1726 7.21441 14.3396 7.28108 14.4626 7.39976C14.5857 7.51844 14.6549 7.67939 14.6549 7.84723C14.6549 8.01506 14.5857 8.17602 14.4626 8.29469C14.3396 8.41337 14.1726 8.48004 13.9986 8.48004Z" fill="white"/>
<path d="M24.8661 8.48004H13.9994C13.8254 8.48004 13.6585 8.41337 13.5354 8.29469C13.4123 8.17602 13.3432 8.01506 13.3432 7.84723C13.3432 7.67939 13.4123 7.51844 13.5354 7.39976C13.6585 7.28108 13.8254 7.21441 13.9994 7.21441H23.7351L21.8718 4.06934H13.9994C13.8254 4.06934 13.6585 4.00266 13.5354 3.88399C13.4123 3.76531 13.3432 3.60436 13.3432 3.43652C13.3432 3.26869 13.4123 3.10773 13.5354 2.98906C13.6585 2.87038 13.8254 2.80371 13.9994 2.80371H22.2524C22.3679 2.80385 22.4813 2.83338 22.5812 2.8893C22.681 2.94523 22.7638 3.02557 22.8212 3.12223L25.4357 7.53251C25.4928 7.62868 25.5226 7.73762 25.5224 7.84843C25.5221 7.95923 25.4916 8.06802 25.434 8.16392C25.3764 8.25981 25.2937 8.33944 25.1942 8.39484C25.0947 8.45024 24.9818 8.47948 24.8669 8.47962L24.8661 8.48004ZM5.84969 13.1911C4.9554 13.1901 4.09804 12.8471 3.46568 12.2373C2.83332 11.6276 2.4776 10.8008 2.47656 9.93846V7.84723C2.47656 7.67939 2.5457 7.51844 2.66877 7.39976C2.79184 7.28108 2.95876 7.21441 3.13281 7.21441C3.30686 7.21441 3.47378 7.28108 3.59685 7.39976C3.71992 7.51844 3.78906 7.67939 3.78906 7.84723V9.93888C3.78508 10.2022 3.83544 10.4637 3.9372 10.7081C4.03895 10.9525 4.19009 11.175 4.38181 11.3626C4.57353 11.5502 4.80201 11.6992 5.05397 11.8008C5.30593 11.9025 5.57634 11.9549 5.84947 11.9549C6.1226 11.9549 6.39301 11.9025 6.64497 11.8008C6.89692 11.6992 7.12541 11.5502 7.31713 11.3626C7.50885 11.175 7.65998 10.9525 7.76174 10.7081C7.8635 10.4637 7.91385 10.2022 7.90987 9.93888V7.84723C7.90987 7.67939 7.97902 7.51844 8.10209 7.39976C8.22516 7.28108 8.39208 7.21441 8.56612 7.21441C8.74017 7.21441 8.90709 7.28108 9.03016 7.39976C9.15323 7.51844 9.22237 7.67939 9.22237 7.84723V9.93888C9.22133 10.8011 8.86566 11.6278 8.23339 12.2374C7.60111 12.8471 6.74386 13.1901 5.84969 13.1911Z" fill="white"/>
<path d="M11.2833 13.1906C10.389 13.1896 9.53163 12.8466 8.89927 12.2368C8.26691 11.627 7.9112 10.8003 7.91016 9.93791V7.84668C7.91016 7.67885 7.9793 7.51789 8.10237 7.39921C8.22544 7.28054 8.39236 7.21387 8.56641 7.21387C8.74045 7.21387 8.90737 7.28054 9.03045 7.39921C9.15352 7.51789 9.22266 7.67885 9.22266 7.84668V9.93834C9.21868 10.2017 9.26903 10.4632 9.37079 10.7076C9.47255 10.952 9.62368 11.1745 9.8154 11.3621C10.0071 11.5496 10.2356 11.6986 10.4876 11.8003C10.7395 11.902 11.0099 11.9543 11.2831 11.9543C11.5562 11.9543 11.8266 11.902 12.0786 11.8003C12.3305 11.6986 12.559 11.5496 12.7507 11.3621C12.9424 11.1745 13.0936 10.952 13.1953 10.7076C13.2971 10.4632 13.3474 10.2017 13.3435 9.93834V7.84668C13.3435 7.67885 13.4126 7.51789 13.5357 7.39921C13.6588 7.28054 13.8257 7.21387 13.9997 7.21387C14.1738 7.21387 14.3407 7.28054 14.4638 7.39921C14.5868 7.51789 14.656 7.67885 14.656 7.84668V9.93834C14.6549 10.8006 14.2993 11.6272 13.667 12.2369C13.0347 12.8466 12.1775 13.1896 11.2833 13.1906Z" fill="white"/>
<path d="M16.7164 13.1906C15.8222 13.1896 14.9649 12.8465 14.3326 12.2368C13.7003 11.627 13.3447 10.8002 13.3438 9.93791V7.84668C13.3438 7.67885 13.4129 7.51789 13.536 7.39921C13.659 7.28054 13.826 7.21387 14 7.21387C14.174 7.21387 14.341 7.28054 14.464 7.39921C14.5871 7.51789 14.6562 7.67885 14.6562 7.84668V9.93834C14.6523 10.2017 14.7026 10.4632 14.8044 10.7076C14.9061 10.952 15.0573 11.1745 15.249 11.3621C15.4407 11.5496 15.6692 11.6986 15.9212 11.8003C16.1731 11.902 16.4435 11.9543 16.7167 11.9543C16.9898 11.9543 17.2602 11.902 17.5122 11.8003C17.7641 11.6986 17.9926 11.5496 18.1843 11.3621C18.376 11.1745 18.5272 10.952 18.6289 10.7076C18.7307 10.4632 18.781 10.2017 18.7771 9.93834V7.84668C18.7771 7.67885 18.8462 7.51789 18.9693 7.39921C19.0923 7.28054 19.2593 7.21387 19.4333 7.21387C19.6074 7.21387 19.7743 7.28054 19.8974 7.39921C20.0204 7.51789 20.0896 7.67885 20.0896 7.84668V9.93834C20.0884 10.8006 19.7326 11.6272 19.1003 12.2369C18.4679 12.8466 17.6107 13.1896 16.7164 13.1906Z" fill="white"/>
<path d="M22.15 13.1906C21.2558 13.1896 20.3985 12.8465 19.7662 12.2368C19.1339 11.627 18.7783 10.8002 18.7773 9.93791V7.84668C18.7773 7.67885 18.8465 7.51789 18.9696 7.39921C19.0926 7.28054 19.2595 7.21387 19.4336 7.21387C19.6076 7.21387 19.7746 7.28054 19.8976 7.39921C20.0207 7.51789 20.0898 7.67885 20.0898 7.84668V9.93834C20.0859 10.2017 20.1362 10.4632 20.238 10.7076C20.3397 10.952 20.4909 11.1745 20.6826 11.3621C20.8743 11.5496 21.1028 11.6986 21.3548 11.8003C21.6067 11.902 21.8771 11.9543 22.1503 11.9543C22.4234 11.9543 22.6938 11.902 22.9457 11.8003C23.1977 11.6986 23.4262 11.5496 23.6179 11.3621C23.8096 11.1745 23.9608 10.952 24.0625 10.7076C24.1643 10.4632 24.2146 10.2017 24.2107 9.93834V7.84668C24.2107 7.67885 24.2798 7.51789 24.4029 7.39921C24.5259 7.28054 24.6929 7.21387 24.8669 7.21387C25.041 7.21387 25.2079 7.28054 25.3309 7.39921C25.454 7.51789 25.5232 7.67885 25.5232 7.84668V9.93834C25.522 10.8006 25.1662 11.6272 24.5339 12.2369C23.9015 12.8466 23.0442 13.1896 22.15 13.1906Z" fill="white"/>
<path d="M19.4344 8.47936C19.2934 8.47932 19.1561 8.43547 19.043 8.35432C18.9298 8.27316 18.8468 8.15902 18.8062 8.02879L17.4307 3.61809C17.3805 3.45736 17.3986 3.284 17.4809 3.13613C17.5633 2.98826 17.7032 2.878 17.8699 2.82961C18.0366 2.78122 18.2164 2.79865 18.3697 2.87809C18.5231 2.95752 18.6374 3.09244 18.6876 3.25317L20.0631 7.66387C20.1132 7.82432 20.0953 7.99739 20.0133 8.14513C19.9313 8.29287 19.7919 8.4032 19.6256 8.45194C19.5637 8.47028 19.4992 8.47952 19.4344 8.47936ZM8.56866 8.47936C8.50447 8.47949 8.44062 8.47039 8.37922 8.45236C8.21295 8.40363 8.07351 8.29329 7.99149 8.14555C7.90947 7.99782 7.89157 7.82474 7.94172 7.66429L9.31547 3.25317C9.36565 3.09244 9.47999 2.95752 9.63334 2.87809C9.70927 2.83876 9.79249 2.81423 9.87825 2.80591C9.96401 2.79759 10.0506 2.80565 10.1332 2.82961C10.2157 2.85357 10.2925 2.89297 10.3593 2.94556C10.426 2.99816 10.4813 3.06291 10.5221 3.13613C10.5629 3.20934 10.5884 3.28959 10.597 3.37229C10.6056 3.45498 10.5973 3.53851 10.5724 3.61809L9.19691 8.02837C9.15637 8.15868 9.07337 8.27291 8.9602 8.35415C8.84703 8.43538 8.70974 8.47929 8.56866 8.47936ZM14.0015 8.47936C13.8275 8.47936 13.6606 8.41269 13.5375 8.29401C13.4144 8.17534 13.3453 8.01438 13.3453 7.84654V3.43584C13.3453 3.26801 13.4144 3.10705 13.5375 2.98838C13.6606 2.8697 13.8275 2.80303 14.0015 2.80303C14.1756 2.80303 14.3425 2.8697 14.4656 2.98838C14.5886 3.10705 14.6578 3.26801 14.6578 3.43584V7.84654C14.6578 8.01438 14.5886 8.17534 14.4656 8.29401C14.3425 8.41269 14.1756 8.47936 14.0015 8.47936ZM14.0015 24.1963H4.23828C4.06423 24.1963 3.89731 24.1296 3.77424 24.011C3.65117 23.8923 3.58203 23.7313 3.58203 23.5635V12.0421C3.58203 11.8743 3.65117 11.7133 3.77424 11.5946C3.89731 11.476 4.06423 11.4093 4.23828 11.4093C4.41233 11.4093 4.57925 11.476 4.70232 11.5946C4.82539 11.7133 4.89453 11.8743 4.89453 12.0421V22.9307H14.0015C14.1756 22.9307 14.3425 22.9974 14.4656 23.116C14.5886 23.2347 14.6578 23.3957 14.6578 23.5635C14.6578 23.7313 14.5886 23.8923 14.4656 24.011C14.3425 24.1296 14.1756 24.1963 14.0015 24.1963Z" fill="white"/>
<path d="M23.7633 24.1962H14C13.826 24.1962 13.659 24.1295 13.536 24.0109C13.4129 23.8922 13.3438 23.7312 13.3438 23.5634C13.3438 23.3956 13.4129 23.2346 13.536 23.1159C13.659 22.9973 13.826 22.9306 14 22.9306H23.107V12.042C23.107 11.8742 23.1761 11.7132 23.2992 11.5945C23.4223 11.4759 23.5892 11.4092 23.7633 11.4092C23.9373 11.4092 24.1042 11.4759 24.2273 11.5945C24.3504 11.7132 24.4195 11.8742 24.4195 12.042V23.5634C24.4195 23.7312 24.3504 23.8922 24.2273 24.0109C24.1042 24.1295 23.9373 24.1962 23.7633 24.1962Z" fill="white"/>
<path d="M19.1967 24.0387C19.0226 24.0387 18.8557 23.9721 18.7326 23.8534C18.6095 23.7347 18.5404 23.5738 18.5404 23.4059V16.7129H9.45703V23.3604C9.45703 23.5282 9.38789 23.6892 9.26482 23.8078C9.14175 23.9265 8.97483 23.9932 8.80078 23.9932C8.62673 23.9932 8.45981 23.9265 8.33674 23.8078C8.21367 23.6892 8.14453 23.5282 8.14453 23.3604V16.0801C8.14453 15.9122 8.21367 15.7513 8.33674 15.6326C8.45981 15.5139 8.62673 15.4473 8.80078 15.4473H19.1967C19.3707 15.4473 19.5376 15.5139 19.6607 15.6326C19.7838 15.7513 19.8529 15.9122 19.8529 16.0801V23.4059C19.8529 23.5738 19.7838 23.7347 19.6607 23.8534C19.5376 23.9721 19.3707 24.0387 19.1967 24.0387Z" fill="white"/>
</svg>
