<svg width="32" height="33" viewBox="0 0 32 33" fill="none" xmlns="http://www.w3.org/2000/svg">
<path d="M10.9873 12.6926L10.9847 12.6938L10.9809 12.6962L10.9873 12.6926ZM23.7063 12.4728C23.6174 12.3939 23.5188 12.3249 23.4124 12.2671C23.2619 12.1856 23.0947 12.1333 22.9213 12.1136C22.7479 12.0938 22.5719 12.107 22.4042 12.1522C22.2366 12.1975 22.0808 12.2739 21.9465 12.3768C21.8122 12.4797 21.7023 12.6068 21.6235 12.7502C21.1835 13.5482 20.5764 14.2584 19.8372 14.8401C19.9505 14.2542 20.0078 13.6603 20.0084 13.0652C20.0109 11.2553 19.4919 9.47709 18.5043 7.91166C17.5167 6.34623 16.0957 5.04948 14.3862 4.15344C14.1978 4.05498 13.9853 4.0022 13.7686 4.00007C13.5519 3.99793 13.3382 4.04652 13.1476 4.14125C12.957 4.23598 12.7956 4.37375 12.6788 4.54161C12.562 4.70947 12.4935 4.90189 12.4797 5.10081C12.4082 6.21519 12.0914 7.30462 11.5487 8.30309C11.006 9.30156 10.2486 10.1883 9.32231 10.9096L9.02842 11.1294C8.05936 11.7291 7.20163 12.4685 6.48818 13.3191C5.37942 14.604 4.61136 16.1088 4.24492 17.7142C3.87849 19.3196 3.92376 20.9815 4.37714 22.568C4.83053 24.1546 5.67955 25.6221 6.85688 26.8542C8.03421 28.0864 9.50745 29.0492 11.1598 29.6664C11.3538 29.7391 11.5642 29.7667 11.7725 29.747C11.9809 29.7272 12.1807 29.6606 12.3545 29.5531C12.5283 29.4456 12.6707 29.3004 12.7692 29.1304C12.8677 28.9604 12.9192 28.7707 12.9193 28.578C12.9182 28.4535 12.8967 28.3299 12.8554 28.2113C12.5695 27.2228 12.4871 26.1939 12.6126 25.1776C13.822 27.2752 15.763 28.9377 18.1237 29.898C18.4117 30.0164 18.7373 30.0323 19.0373 29.9426C20.9022 29.3889 22.5822 28.4057 23.9177 27.0865C25.2532 25.7673 26.1998 24.1559 26.6677 22.4054C27.1355 20.6549 27.109 18.8234 26.5907 17.085C26.0724 15.3466 25.0795 13.7589 23.7063 12.4728ZM18.7166 27.5542C17.6027 27.0351 16.6201 26.3061 15.8326 25.4147C15.0452 24.5232 14.4705 23.4893 14.1459 22.3802C14.0467 22.0067 13.9699 21.6284 13.9159 21.2471C13.8796 21.0043 13.7616 20.778 13.5786 20.6C13.3955 20.4219 13.1565 20.3009 12.895 20.2539C12.8146 20.2395 12.7328 20.2325 12.6509 20.2328C12.4264 20.2326 12.2058 20.2868 12.0113 20.3899C11.8169 20.4931 11.6553 20.6416 11.5431 20.8204C10.4831 22.5027 9.95018 24.4221 10.0034 26.3659C9.07078 25.6991 8.29136 24.8687 7.71027 23.9228C7.12919 22.9768 6.758 21.9342 6.61822 20.8553C6.47845 19.7764 6.57287 18.6827 6.89601 17.6377C7.21915 16.5926 7.76458 15.6169 8.50069 14.7672C9.05962 14.0994 9.73387 13.5205 10.4966 13.0535C10.53 13.0338 10.562 13.0122 10.5924 12.9888C10.5924 12.9888 10.9706 12.7009 10.9834 12.695C12.8045 11.2787 14.0999 9.37507 14.689 7.24942C16.0811 8.43346 17.0091 10.0072 17.3292 11.7262C17.6492 13.4452 17.3432 15.2133 16.4587 16.756C16.3417 16.9619 16.2936 17.1951 16.3206 17.4261C16.3475 17.6571 16.4483 17.8756 16.6102 18.054C16.7721 18.2323 16.9879 18.3625 17.2302 18.4281C17.4725 18.4938 17.7305 18.4919 17.9716 18.4227C19.9288 17.858 21.6511 16.7554 22.9064 15.2632C23.6612 16.2884 24.1547 17.4571 24.3502 18.6822C24.5456 19.9073 24.4379 21.1571 24.0352 22.3386C23.6324 23.52 22.945 24.6027 22.0241 25.5057C21.1032 26.4088 19.9726 27.109 18.7166 27.5542Z" fill="#9D9DB6"/>
</svg>
