<svg width="31" height="33" viewBox="0 0 31 33" fill="none" xmlns="http://www.w3.org/2000/svg">
<path d="M26.4081 27.9073H21.823V20.5461C21.823 18.7908 21.7872 16.535 19.4254 16.535C17.0345 16.535 16.6702 18.4389 16.6702 20.4163V27.9063H12.0793V12.7706H16.4891V14.8352H16.5482C17.1643 13.6428 18.663 12.389 20.8988 12.389C25.5498 12.389 26.413 15.522 26.413 19.5956V27.9063L26.4081 27.9073ZM6.89266 10.7021C5.41337 10.7021 4.22762 9.47805 4.22762 7.97053C4.22762 6.46796 5.41822 5.24588 6.89266 5.24588C8.36709 5.24588 9.56156 6.46796 9.56156 7.97053C9.56156 9.47805 8.36709 10.7021 6.89266 10.7021ZM9.19247 27.9073H4.59187V12.7716H9.19247V27.9073ZM28.7099 0.87793H2.28625C1.02397 0.87793 0 1.8998 0 3.16449V30.3088C0 31.5735 1.02397 32.5954 2.28625 32.5954H28.705C29.9654 32.5954 31 31.5735 31 30.3088V3.16449C31 1.8998 29.9654 0.87793 28.705 0.87793L28.7099 0.87793Z" fill="white"/>
</svg>
