<svg width="111" height="33" viewBox="0 0 111 33" fill="none" xmlns="http://www.w3.org/2000/svg">
<path d="M16.176 27.576C14.352 27.576 12.672 27.864 10.992 28.2C8.88 28.632 6.72 29.112 4.608 29.544C4.08 29.64 3.84 29.88 3.792 30.36C3.744 30.696 3.648 31.032 3.552 31.368C3.264 32.376 2.64 32.856 1.632 32.76C0.768 32.712 0.144 32.04 0.048 31.08C0 30.264 0 29.4 0.096 28.584C0.96 20.184 1.296 9.768 7.248 3.096C8.112 2.088 9.12 1.272 10.464 0.935998C11.568 0.647999 12.576 0.887999 13.536 1.464C15.072 2.328 16.128 3.576 16.896 5.112C18.864 8.904 19.728 13.656 20.496 17.88C21.216 21.768 21.456 25.848 21.264 29.832C21.216 30.36 21.12 30.936 20.928 31.464C20.592 32.28 19.968 32.664 19.056 32.664C18.192 32.664 17.52 32.28 17.184 31.464C16.992 30.984 16.848 30.408 16.752 29.928C16.56 29.16 16.368 28.392 16.176 27.576ZM10.944 6.504C10.752 6.744 10.512 6.936 10.32 7.176C9.264 8.568 8.448 10.104 7.824 11.736C6.336 15.528 5.616 19.512 4.992 23.544C4.992 23.64 5.04 23.784 5.04 24.072C8.256 22.68 11.568 21.816 14.976 21.432C14.976 21.192 14.976 21.096 14.976 21C14.304 17.832 13.68 14.712 13.008 11.592C12.672 10.248 12.24 8.904 11.808 7.608C11.664 7.176 11.472 6.744 10.944 6.504ZM7.344 4.968C8.112 4.296 8.832 3.624 9.6 3C10.32 2.328 11.328 2.184 12.24 1.896C11.184 1.464 10.224 1.752 9.312 2.328C8.112 3.144 7.296 4.152 7.344 4.968ZM17.28 27.96C17.232 29.064 17.328 30.072 17.904 30.984C18.144 31.32 18.48 31.608 18.816 31.848C19.056 31.992 19.44 32.088 19.872 31.8C18.048 31.08 17.808 29.448 17.28 27.96ZM0.816 28.872C0.336 29.784 0.432 30.648 0.864 31.512C1.152 32.184 1.632 32.328 2.304 32.04C0.96 31.368 1.104 30.024 0.816 28.872ZM37.2293 12.792C36.6533 13.56 36.2693 14.472 35.9813 15.384C35.4053 17.496 34.8293 19.656 34.2533 21.816C33.9653 22.728 33.0533 23.4 32.1413 23.4C31.2293 23.4 30.3653 22.584 30.1733 21.624C29.9333 20.136 29.7413 18.648 29.4533 17.208C29.2613 16.344 28.9253 15.528 28.6373 14.568C28.4933 14.76 28.3973 14.856 28.3493 14.952C27.9173 16.008 27.7733 17.112 27.7253 18.216C27.7253 19.512 27.8213 20.856 27.8213 22.152C27.8213 23.352 27.2453 24.312 26.2373 24.648C24.5573 25.272 23.0213 24.216 22.8773 22.44C22.7812 21.24 22.7812 20.04 22.8773 18.84C23.0213 16.968 23.1653 15.048 24.0773 13.272C24.7973 11.88 25.5653 10.44 27.0533 9.72C28.7333 8.904 30.2693 9.384 31.3253 10.824C31.7093 11.352 31.9973 11.88 32.3333 12.504C32.5253 12.12 32.7173 11.736 32.9093 11.352C33.5813 9.912 34.4933 8.616 35.8373 7.704C37.3733 6.6 38.9573 6.696 40.3493 7.944C41.0693 8.568 41.4053 9.432 41.6453 10.344C42.3653 12.984 42.3653 15.672 42.2693 18.408C42.2693 19.8 42.1733 21.144 41.9813 22.536C41.9333 23.4 41.6933 24.216 40.9253 24.792C39.5813 25.704 37.5653 24.936 37.4693 23.064C37.3253 21.144 37.2773 19.176 37.2773 17.256C37.2293 15.96 37.3253 14.664 37.3253 13.368C37.3253 13.176 37.3253 12.984 37.3253 12.792C37.2773 12.792 37.2773 12.792 37.2293 12.792ZM31.0853 17.88C30.9893 17.928 30.8933 17.928 30.7973 17.928C30.8933 18.888 30.8933 19.8 31.0853 20.712C31.1333 21.144 31.3733 21.576 31.6613 21.96C31.7573 22.152 32.0933 22.248 32.3333 22.344C32.4293 22.392 32.5733 22.248 32.7173 22.2C32.6693 22.104 32.5733 22.008 32.5253 21.912C32.2853 21.48 31.9493 21.096 31.8053 20.616C31.5653 19.992 31.4693 19.32 31.2773 18.648C31.2293 18.408 31.1333 18.168 31.0853 17.88ZM29.0213 10.392C28.7333 10.008 28.1573 10.008 27.3893 10.392C26.1893 11.016 25.0853 12.6 25.3253 13.464C25.8533 12.792 26.2853 12.072 26.9093 11.544C27.4853 11.064 28.3013 10.776 29.0213 10.392ZM38.5253 20.52C38.4773 20.568 38.4293 20.568 38.3813 20.568C37.9493 21.528 38.2373 23.16 39.0053 23.832C39.3413 24.12 39.7733 24.264 40.2533 24.216C40.3973 24.168 40.4933 24.072 40.5893 23.976C40.4933 23.88 40.4453 23.784 40.3013 23.736C39.6293 23.544 39.1973 23.112 39.0053 22.44C38.8613 22.056 38.8133 21.624 38.7173 21.192C38.6693 20.952 38.6213 20.76 38.5253 20.52ZM34.0133 11.304C34.1093 11.352 34.1573 11.4 34.2053 11.448C34.6853 10.776 35.1172 10.056 35.6933 9.528C36.3173 8.952 37.1333 8.616 37.9013 8.184C37.4693 7.944 37.0373 7.944 36.6053 8.088C35.1653 8.712 34.6373 10.008 34.0133 11.304ZM25.8533 23.928C25.4213 23.496 24.8933 23.112 24.6053 22.584C24.3173 22.104 24.2213 21.48 24.0293 20.904C23.9333 20.952 23.8853 20.952 23.8853 21C23.4533 21.96 23.9813 23.448 24.8933 23.976C25.1813 24.12 25.5173 24.168 25.8533 23.928ZM49.1104 13.944L48.7744 22.2C48.6304 23.112 48.5344 24.12 48.2944 25.032C47.8624 26.472 46.4704 26.952 45.2224 26.184C44.5984 25.8 44.4064 25.176 44.2624 24.504C44.1184 23.688 44.0704 22.92 44.0224 22.104C43.8784 20.136 43.7344 18.168 43.7344 16.2C43.7824 14.52 44.0224 12.84 44.1664 11.208C44.2144 10.872 44.2144 10.536 44.2624 10.248C44.4544 9.096 45.4144 8.328 46.4224 8.376C47.4784 8.376 48.2464 8.904 48.5344 10.152C48.8704 11.4 48.9664 12.696 49.1104 13.944ZM45.1264 12.168C45.2224 11.88 45.2704 11.688 45.3184 11.496C45.6544 10.728 45.8464 9.768 46.8544 9.48C46.9024 9.48 46.9504 9.336 46.9504 9.288C46.9504 9.192 46.8544 9.144 46.7584 9.144C46.6144 9.096 46.4224 9.096 46.2784 9.144C45.4144 9.384 44.5984 11.016 44.9344 11.88C44.9344 11.976 44.9824 12.024 45.1264 12.168ZM45.1744 23.16C44.6464 23.784 45.0784 24.984 45.5104 25.368C45.7984 25.656 46.1344 25.8 46.6624 25.512C45.8464 24.888 45.3184 24.168 45.1744 23.16ZM50.6753 20.808C50.6753 19.848 50.6753 18.936 50.6753 17.976C50.7233 15.864 50.7233 13.704 50.7713 11.592C50.7713 11.448 50.7713 11.256 50.7233 11.112C50.1952 9.864 51.1553 8.52 52.1152 7.992C53.1713 7.416 54.3233 7.176 55.5233 7.032C57.5872 6.84 59.5073 7.32 61.1393 8.664C62.8193 10.008 63.9233 11.688 64.2593 13.848C64.5473 15.384 64.4993 16.872 63.9713 18.312C63.2032 20.52 61.7633 22.2 59.6993 23.304C58.7393 23.832 57.7793 24.312 56.6753 24.456C56.1473 24.504 56.2913 24.888 56.2913 25.176C56.2913 25.848 56.3393 26.52 56.2913 27.192C56.0993 28.392 55.0433 29.352 53.9393 29.448C52.1152 29.592 51.1553 28.44 50.8673 27.384C50.8193 27.096 50.7713 26.808 50.7713 26.52C50.7713 24.6 50.7713 22.728 50.7713 20.808C50.7233 20.808 50.7233 20.808 50.6753 20.808ZM56.2913 18.984C57.6353 18.744 59.0273 17.256 58.9313 15C58.8833 13.848 57.7793 12.072 55.8113 12.024C55.9553 14.328 56.1473 16.632 56.2913 18.984ZM51.8273 24.072C51.7793 24.072 51.7313 24.12 51.6833 24.12C51.4433 25.416 51.4433 26.712 52.3073 27.816C52.5473 28.2 53.0273 28.392 53.4593 28.632C53.5553 28.68 53.7953 28.536 53.9873 28.488C53.8913 28.392 53.7953 28.2 53.6513 28.152C53.1233 27.816 52.6433 27.432 52.4513 26.808C52.2593 26.04 52.1152 25.272 51.9713 24.552C51.9233 24.36 51.8753 24.216 51.8273 24.072ZM59.4113 17.112C59.8913 17.16 60.0353 16.872 60.1313 16.632C60.7553 15.192 60.5633 13.8 59.6033 12.552C59.5073 12.456 59.3153 12.408 59.1233 12.36C59.1233 12.36 59.0753 12.408 59.0273 12.456C59.8913 13.944 60.1313 15.48 59.4113 17.112ZM51.5393 10.824C51.5393 10.872 51.5393 10.92 51.5393 10.968C51.6353 11.208 51.7313 11.496 51.8273 11.736C51.9233 11.496 52.1152 11.256 52.1633 11.016C52.2113 9.912 52.6913 9.096 53.5553 8.472C53.6513 8.424 53.6513 8.28 53.6992 8.232C53.6033 8.184 53.5073 8.088 53.4113 8.088C53.2193 8.136 53.0753 8.184 52.9313 8.28C51.9713 8.856 51.6353 9.768 51.5393 10.824ZM79.9181 22.392C79.7741 23.448 79.6781 24.504 79.4861 25.56C79.2461 26.664 78.2381 27.384 77.0861 27.24C76.1741 27.192 75.3101 26.184 75.1661 25.224C75.0701 24.504 74.9261 23.784 74.7341 23.112C74.7341 22.968 74.4941 22.824 74.3501 22.824C72.8621 22.92 71.3741 23.016 69.9821 23.448C69.2141 23.688 68.7821 24.216 68.5901 25.032C68.4461 25.752 68.2061 26.472 67.8701 27.144C67.5341 27.816 66.8141 28.056 66.0461 28.008C65.2781 27.912 64.6541 27.48 64.3181 26.664C63.9821 25.848 64.1261 25.032 64.3181 24.216C65.0381 21.72 65.6621 19.128 66.4781 16.632C67.2461 14.184 68.2541 11.832 69.6941 9.72C70.5581 8.376 71.7581 7.56 73.3421 7.464C74.3021 7.416 75.2141 7.8 75.9821 8.472C76.9421 9.288 77.6141 10.344 78.0461 11.592C78.6221 13.32 79.0541 15.096 79.1981 16.872C79.3421 18.168 79.5821 19.416 79.7741 20.664C79.8221 21.24 79.8221 21.816 79.8701 22.392C79.8701 22.392 79.8701 22.392 79.9181 22.392ZM70.7501 18.6C70.7981 18.648 70.8461 18.696 70.8461 18.648C71.8061 18.6 72.7661 18.504 73.6781 18.36C73.7741 18.36 73.8701 18.168 73.8701 18.072C73.7261 17.064 73.5821 16.056 73.4381 15.048C73.3421 14.616 73.1981 14.232 73.1021 13.8C72.0941 15.384 71.2781 16.92 70.7501 18.6ZM69.7421 11.544C69.7901 11.592 69.8381 11.592 69.8861 11.64C70.3661 11.112 70.7501 10.536 71.2781 10.056C71.8061 9.528 72.4301 9.144 73.1021 8.664C72.3341 8.472 71.8061 8.856 71.3261 9.24C70.5581 9.816 69.8861 10.536 69.7421 11.544ZM66.3341 27.24C65.4701 26.28 65.2781 25.176 65.6621 23.88C64.9901 24.312 64.7501 25.416 65.0861 26.28C65.2781 26.904 65.7581 27.288 66.3341 27.24ZM76.0301 23.352C75.7421 24.024 75.7901 24.648 76.0301 25.224C76.2701 25.848 76.5581 26.328 77.2301 26.52C77.3741 26.568 77.5181 26.472 77.6621 26.472C77.6621 26.424 77.7101 26.376 77.7101 26.328C76.5101 25.656 76.3181 24.504 76.0301 23.352ZM91.023 20.904C91.887 22.872 92.799 24.888 94.239 26.664C94.527 27 94.911 27.288 95.199 27.672C95.679 28.296 95.679 28.968 95.295 29.64C94.959 30.36 94.383 30.744 93.567 30.744C93.087 30.744 92.655 30.648 92.223 30.36C91.599 29.88 90.831 29.496 90.303 28.92C89.583 28.152 88.911 27.288 88.335 26.376C87.807 25.464 87.423 24.456 86.943 23.496C86.895 23.4 86.799 23.304 86.607 23.208C86.559 23.784 86.463 24.36 86.415 24.936C86.415 25.56 86.415 26.232 86.127 26.808C85.647 27.816 84.591 28.392 83.535 28.248C82.479 28.056 81.471 27.144 81.423 26.088C81.327 25.128 81.423 24.168 81.471 23.16C81.519 22.056 81.615 20.904 81.663 19.752C81.663 19.032 81.663 18.312 81.663 17.592C81.615 15.864 81.615 14.088 81.567 12.36C81.519 11.64 81.423 10.92 81.375 10.2C81.375 8.952 82.095 7.896 83.343 7.608C84.831 7.272 86.319 6.84 87.855 6.936C89.679 7.032 91.311 7.704 92.703 8.904C93.903 9.912 94.719 11.16 95.103 12.648C95.679 15.048 95.199 17.16 93.423 18.936C92.751 19.656 91.887 20.232 91.023 20.904ZM86.607 16.536C87.903 16.44 88.911 16.008 89.823 15.192C90.111 14.952 90.351 14.52 90.303 14.184C90.303 13.704 90.063 13.224 89.775 12.84C89.103 11.736 87.327 11.112 86.175 11.4C86.319 13.128 86.463 14.808 86.607 16.536ZM90.927 11.688C90.879 11.736 90.831 11.736 90.783 11.784C90.831 11.88 90.831 12.024 90.879 12.12C91.311 13.128 91.263 14.088 90.639 15C90.399 15.384 90.111 15.72 89.871 16.056C89.775 16.152 89.775 16.296 89.727 16.44C89.871 16.392 90.015 16.44 90.111 16.392C91.503 15.624 92.127 13.56 91.359 12.168C91.215 12.024 91.071 11.832 90.927 11.688ZM90.927 27.192C90.879 27.192 90.831 27.24 90.831 27.24C90.831 27.336 90.831 27.48 90.879 27.528C91.407 28.152 91.935 28.776 92.559 29.304C92.847 29.544 93.327 29.592 93.759 29.688C93.903 29.736 94.095 29.544 94.239 29.448C94.143 29.352 93.999 29.16 93.855 29.112C92.991 28.872 92.271 28.344 91.599 27.768C91.359 27.576 91.119 27.384 90.927 27.192ZM82.527 23.784C82.383 23.928 82.335 23.976 82.335 24.024C82.287 24.072 82.287 24.168 82.239 24.216C82.191 25.224 82.479 26.088 83.247 26.76C83.439 26.904 83.727 27 84.015 27.048C84.111 27.096 84.255 27 84.399 26.952C84.351 26.808 84.303 26.664 84.159 26.568C83.247 26.04 82.767 25.272 82.671 24.216C82.671 24.072 82.575 23.976 82.527 23.784ZM82.719 10.824C82.767 10.824 82.815 10.776 82.863 10.776C82.911 10.68 82.911 10.536 82.959 10.44C83.103 9.768 83.295 9.144 83.871 8.664C83.967 8.568 83.967 8.424 84.015 8.28C83.871 8.28 83.679 8.232 83.583 8.28C82.911 8.616 82.383 9.72 82.527 10.44C82.575 10.584 82.671 10.68 82.719 10.824ZM102.791 12.216C103.223 11.496 103.655 10.728 104.135 10.008C104.903 8.904 105.719 7.8 106.583 6.792C107.303 5.976 108.647 5.688 109.703 6.552C110.423 7.128 110.759 8.28 110.231 9.144C109.895 9.864 109.367 10.44 108.935 11.064C108.119 12.264 107.399 13.416 106.631 14.616C106.391 15 106.103 15.432 105.863 15.864C105.815 15.96 105.815 16.2 105.863 16.296C107.543 18.264 108.455 20.568 109.175 23.016C109.559 24.408 109.991 25.848 110.327 27.288C110.519 28.104 110.471 29.016 109.751 29.64C108.551 30.648 106.967 30.072 106.487 28.728C106.199 28.056 106.007 27.336 105.671 26.664C104.903 24.936 104.087 23.16 103.319 21.384C103.223 21.384 103.175 21.384 103.127 21.384C103.031 21.72 102.887 22.104 102.791 22.44C102.599 23.256 102.503 24.072 102.167 24.792C101.687 25.896 100.679 26.328 99.4793 26.184C98.4233 26.04 97.7513 25.416 97.3673 24.456C97.2233 24.024 97.1273 23.544 97.0793 23.064C96.9832 21.096 97.2233 19.176 97.3673 17.256C97.4633 16.056 97.5593 14.856 97.6553 13.656C97.7513 12.36 97.7993 11.016 97.9433 9.72C97.9913 9.048 98.3273 8.472 98.9513 8.088C100.055 7.416 101.495 7.8 102.023 9.096C102.311 9.864 102.407 10.728 102.599 11.592C102.647 11.784 102.647 12.024 102.695 12.216C102.743 12.216 102.743 12.216 102.791 12.216ZM105.911 24.024C105.863 24.072 105.767 24.12 105.719 24.12C105.815 24.504 105.911 24.888 106.055 25.224C106.391 26.184 106.727 27.144 107.207 28.008C107.399 28.44 107.927 28.728 108.311 28.968C108.503 29.064 108.791 28.968 109.127 28.92C108.983 28.728 108.935 28.632 108.839 28.584C107.927 28.152 107.495 27.288 107.111 26.376C106.871 25.752 106.631 25.176 106.343 24.6C106.247 24.36 106.055 24.216 105.911 24.024ZM98.3273 21.672C98.2313 21.672 98.1353 21.672 98.0873 21.672C98.0393 22.056 97.9433 22.392 97.9433 22.728C97.9433 23.688 98.7593 24.888 99.4793 25.128C99.7193 25.176 99.9593 25.128 100.199 25.08C100.055 24.936 99.9593 24.696 99.8153 24.552C98.9993 23.976 98.5673 23.208 98.4713 22.2C98.4233 22.008 98.3753 21.864 98.3273 21.672ZM98.6152 12.216C98.7113 12.216 98.7593 12.216 98.8553 12.216C99.4313 11.064 99.1433 9.528 100.535 8.712C100.295 8.664 100.103 8.616 99.9593 8.664C98.9033 9.096 98.6152 10.056 98.5193 11.064C98.4713 11.448 98.5673 11.832 98.6152 12.216ZM105.623 9.576C105.671 9.576 105.719 9.624 105.767 9.672C105.911 9.528 106.007 9.432 106.151 9.288C106.679 8.712 107.207 8.088 107.735 7.464C107.831 7.368 107.927 7.224 107.975 7.128C107.831 7.08 107.639 7.032 107.543 7.08C106.775 7.368 106.295 7.896 105.959 8.616C105.815 8.904 105.719 9.24 105.623 9.576Z" fill="white"/>
</svg>
