<svg width="32" height="33" viewBox="0 0 32 33" fill="none" xmlns="http://www.w3.org/2000/svg">
<g clip-path="url(#clip0_380_1148)">
<path d="M30.1086 27.5002L27.151 26.5502V25.4502C28.6056 24.1002 29.5268 21.6502 29.5268 19.8502C29.5268 17.2502 27.4904 15.1002 24.9207 15.1002C22.351 15.1002 20.3147 17.2502 20.3147 19.8502C20.3147 21.6502 21.2359 24.1002 22.6904 25.4502V26.5502L19.8298 27.5002C19.0056 27.7502 18.4238 28.5502 18.4238 29.4502V32.0002C18.4238 32.2502 18.6177 32.5002 18.9086 32.5002H31.0298C31.2723 32.5002 31.5147 32.3002 31.5147 32.0002V29.4502C31.5147 28.5502 30.9329 27.7502 30.1086 27.5002ZM26.2298 26.9002C26.2298 27.7002 23.7086 27.7002 23.7086 26.9002V26.1002C24.5813 26.5502 25.4056 26.5002 26.2298 26.1002V26.9002ZM22.1086 22.8002C22.545 22.2002 22.8359 21.0502 22.8844 19.9002C23.6117 20.3502 24.4359 20.5502 25.3086 20.5502C26.0844 20.5002 26.7632 20.3002 27.345 19.9002C27.442 20.6002 27.6359 21.5002 28.1207 21.9502C28.1692 22.0002 28.2177 22.0002 28.2662 22.0502C26.7632 25.9502 23.9995 26.8502 22.1086 22.8002ZM12.1692 12.8502L9.21165 11.9002V10.8002C10.6662 9.4502 11.5874 7.0002 11.5874 5.2002C11.5874 2.6002 9.55104 0.450195 6.98135 0.450195C4.50862 0.500195 2.42377 2.6502 2.42377 5.2502C2.42377 7.0502 3.34498 9.5002 4.79953 10.8502V11.9502L1.84195 12.9002C1.06619 13.1002 0.484375 13.9002 0.484375 14.8002V17.4002C0.484375 17.6502 0.678314 17.9002 0.969224 17.9002H13.0904C13.3329 17.9002 13.5753 17.7002 13.5753 17.4002V14.8002C13.5268 13.9002 12.9935 13.1002 12.1692 12.8502ZM8.29044 12.2502C8.29044 13.0502 5.76922 13.0502 5.76922 12.2502V11.4502C6.59347 11.8502 7.41771 11.9002 8.29044 11.4502V12.2502ZM4.12074 8.1502C4.5571 7.5502 4.84801 6.4002 4.8965 5.2502C5.62377 5.7002 6.44801 5.9002 7.32074 5.9002C8.0965 5.8502 8.77528 5.6502 9.3571 5.2502C9.45407 5.9502 9.64801 6.8502 10.1329 7.3002C10.1813 7.3502 10.2298 7.3502 10.2783 7.4002C8.77529 11.4002 6.01165 12.2002 4.12074 8.1502ZM12.848 24.7502L11.5389 24.3502C11.442 24.1002 11.3935 23.9002 11.248 23.6502L11.9268 22.4002C12.0238 22.2002 11.9753 21.9502 11.8298 21.8002L10.8116 20.7502C10.6662 20.6002 10.4238 20.5502 10.2298 20.6502L9.01771 21.3502C8.82377 21.2502 8.58135 21.1502 8.33892 21.0502L7.95104 19.7002C7.90256 19.5002 7.70862 19.3502 7.51468 19.3502H6.06013C5.86619 19.3502 5.67225 19.5002 5.62377 19.7002L5.23589 21.0502C4.99347 21.1502 4.79953 21.2002 4.5571 21.3502L3.34498 20.6502C3.15104 20.5502 2.90862 20.6002 2.76316 20.7502L1.74498 21.8002C1.59953 21.9502 1.55104 22.2002 1.64801 22.4002L2.42377 23.6502C2.3268 23.8502 2.22983 24.1002 2.13286 24.3502L0.823769 24.7502C0.62983 24.8002 0.484375 25.0002 0.484375 25.2002V26.7002C0.484375 26.9002 0.62983 27.1002 0.823769 27.1502L2.13286 27.5502C2.22983 27.8002 2.3268 28.0002 2.42377 28.2502L1.74498 29.5002C1.64801 29.7002 1.6965 29.9002 1.84195 30.1002L2.86013 31.1502C3.00559 31.3002 3.24801 31.3502 3.44195 31.2502L4.60559 30.5002C4.79953 30.6002 5.04195 30.7002 5.28438 30.8002L5.67225 32.1502C5.72074 32.3502 5.91468 32.5002 6.10862 32.5002H7.56316C7.7571 32.5002 7.95104 32.3502 7.99953 32.1502L8.38741 30.8002C8.62983 30.7002 8.82377 30.6502 9.06619 30.5002L10.2783 31.2002C10.4723 31.3002 10.6662 31.2502 10.8601 31.1002L11.8783 30.0502C12.0238 29.9002 12.0723 29.6502 11.9753 29.4502L11.2965 28.2002C11.3935 28.0002 11.4904 27.7502 11.5874 27.5502L12.8965 27.1502C13.0904 27.1002 13.2359 26.9002 13.2359 26.7002V25.2002C13.1874 25.0002 13.042 24.8002 12.848 24.7502ZM6.83589 28.4002C5.5268 28.4002 4.46013 27.3002 4.46013 25.9502C4.46013 24.6002 5.5268 23.5002 6.83589 23.5002C8.14498 23.5002 9.21165 24.6002 9.21165 25.9502C9.21165 27.3002 8.14498 28.4002 6.83589 28.4002ZM31.1753 5.8502L29.8662 5.4502C29.7692 5.2002 29.7207 5.0002 29.5753 4.8002L30.2541 3.5502C30.351 3.3502 30.3026 3.1002 30.1571 2.9502L29.1389 1.9002C28.9935 1.7502 28.751 1.7002 28.5571 1.8002L27.3935 2.5002C27.1995 2.4002 26.9571 2.3002 26.7147 2.2002L26.3268 0.850195C26.2783 0.650195 26.0844 0.500195 25.8904 0.500195H24.4359C24.242 0.500195 24.048 0.650195 23.9995 0.850195L23.6117 2.2002C23.3692 2.3002 23.1753 2.3502 22.9813 2.5002L21.7692 1.8002C21.5753 1.7002 21.3813 1.7502 21.1874 1.9002L20.1692 2.9502C20.0238 3.1002 19.9753 3.3502 20.0723 3.5502L20.751 4.8002C20.6541 5.0002 20.5571 5.2502 20.4601 5.4502L19.151 5.8502C18.9571 5.9002 18.8116 6.1002 18.8116 6.3002V7.8002C18.8116 8.0002 18.9571 8.2002 19.151 8.2502L20.4601 8.6502C20.5571 8.9002 20.6056 9.1002 20.751 9.3002L20.0723 10.5502C19.9753 10.7502 20.0238 11.0002 20.1692 11.1502L21.1874 12.2002C21.3329 12.3502 21.5753 12.4002 21.7692 12.3002L22.9813 11.6002C23.1753 11.7002 23.4177 11.8002 23.6117 11.9002L23.9995 13.2502C24.048 13.4502 24.242 13.6002 24.4359 13.6002H25.8904C26.0844 13.6002 26.2783 13.4502 26.3268 13.2502L26.7147 11.9002C26.9571 11.8002 27.151 11.7502 27.3935 11.6002L28.6056 12.3002C28.7995 12.4002 29.042 12.3502 29.1874 12.2002L30.2056 11.1502C30.351 11.0002 30.3995 10.7502 30.3026 10.5502L29.5753 9.3502C29.6723 9.1502 29.7692 8.9002 29.8662 8.7002L31.1753 8.3002C31.3692 8.2502 31.5147 8.0502 31.5147 7.8502V6.3502C31.5147 6.1002 31.3692 5.9002 31.1753 5.8502ZM25.1632 9.5002C23.8541 9.5002 22.7874 8.4002 22.7874 7.0502C22.7874 5.7002 23.8541 4.6002 25.1632 4.6002C26.4723 4.6002 27.5389 5.7002 27.5389 7.0502C27.5389 8.4002 26.4723 9.5002 25.1632 9.5002Z" fill="#9D9DB6"/>
<path d="M17.5991 28.8002C17.5506 29.0002 17.5506 29.2502 17.5506 29.4502V29.8502C16.387 29.3002 15.5628 28.1002 15.5628 26.6502V18.6502C15.5628 17.8002 15.1264 17.0502 14.4961 16.5502V15.4502C15.6597 16.0002 16.484 17.2002 16.484 18.6502V26.6502C16.484 27.5502 16.9203 28.3502 17.5991 28.8002Z" fill="#9D9DB6"/>
</g>
<defs>
<clipPath id="clip0_380_1148">
<rect width="32" height="33" fill="white"/>
</clipPath>
</defs>
</svg>
