<svg width="385" height="541" viewBox="0 0 385 541" fill="none" xmlns="http://www.w3.org/2000/svg">
<g filter="url(#filter0_f_578_619)">
<path fill-rule="evenodd" clip-rule="evenodd" d="M80 64C71.1634 64 64 71.1635 64 80V296.114C64.8225 296.034 65.6565 295.993 66.5 295.993H69.5C83.5833 295.993 95 307.41 95 321.493V322.387C95 336.47 83.5833 347.887 69.5 347.887H66.5C65.6565 347.887 64.8225 347.846 64 347.766V460.094C64 468.93 71.1634 476.094 80 476.094H305C313.837 476.094 321 468.93 321 460.094V348.904H319.5C305.417 348.904 294 337.288 294 322.958C294 308.628 305.417 297.011 319.5 297.011H321V80C321 71.1634 313.837 64 305 64H80ZM94.5 440.785C101.404 440.785 107 435.188 107 428.285C107 421.381 101.404 415.785 94.5 415.785C87.5964 415.785 82 421.381 82 428.285C82 435.188 87.5964 440.785 94.5 440.785ZM298.5 440.785C305.404 440.785 311 435.188 311 428.285C311 421.381 305.404 415.785 298.5 415.785C291.596 415.785 286 421.381 286 428.285C286 435.188 291.596 440.785 298.5 440.785ZM196.5 440.785C203.404 440.785 209 435.188 209 428.285C209 421.381 203.404 415.785 196.5 415.785C189.596 415.785 184 421.381 184 428.285C184 435.188 189.596 440.785 196.5 440.785ZM264.5 440.785C271.404 440.785 277 435.188 277 428.285C277 421.381 271.404 415.785 264.5 415.785C257.596 415.785 252 421.381 252 428.285C252 435.188 257.596 440.785 264.5 440.785ZM230.5 440.785C237.404 440.785 243 435.188 243 428.285C243 421.381 237.404 415.785 230.5 415.785C223.596 415.785 218 421.381 218 428.285C218 435.188 223.596 440.785 230.5 440.785ZM162.5 440.785C169.404 440.785 175 435.188 175 428.285C175 421.381 169.404 415.785 162.5 415.785C155.596 415.785 150 421.381 150 428.285C150 435.188 155.596 440.785 162.5 440.785ZM128.5 440.785C135.404 440.785 141 435.188 141 428.285C141 421.381 135.404 415.785 128.5 415.785C121.596 415.785 116 421.381 116 428.285C116 435.188 121.596 440.785 128.5 440.785Z" fill="#D37A7B" fill-opacity="0.5"/>
</g>
<path fill-rule="evenodd" clip-rule="evenodd" d="M91.9902 22H101.01C101.272 28.6718 106.764 34 113.5 34C120.236 34 125.728 28.6718 125.99 22H135.01C135.272 28.6718 140.764 34 147.5 34C154.236 34 159.728 28.6718 159.99 22H169.01C169.272 28.6718 174.764 34 181.5 34C188.236 34 193.728 28.6718 193.99 22H203.01C203.272 28.6718 208.764 34 215.5 34C222.236 34 227.728 28.6718 227.99 22H237.01C237.272 28.6718 242.764 34 249.5 34C256.236 34 261.728 28.6718 261.99 22H271.01C271.272 28.6718 276.764 34 283.5 34C290.195 34 295.661 28.7366 295.985 22.1219C303.885 23.0993 310 29.8355 310 38V251H308.5C294.417 251 283 262.417 283 276.5C283 290.583 294.417 302 308.5 302H310V411C310 417.721 305.856 423.474 299.983 425.844C299.642 419.245 294.183 414 287.5 414C280.596 414 275 419.596 275 426.5C275 426.667 275.003 426.834 275.01 427H265.99C265.997 426.834 266 426.667 266 426.5C266 419.596 260.404 414 253.5 414C246.596 414 241 419.596 241 426.5L241 426.558C241 426.59 241.001 426.621 241.001 426.652C241.001 426.684 241.002 426.716 241.002 426.748C241.004 426.832 241.007 426.916 241.01 427H231.99C231.997 426.834 232 426.667 232 426.5C232 419.596 226.404 414 219.5 414C212.596 414 207 419.596 207 426.5C207 426.667 207.003 426.834 207.01 427H197.99C197.997 426.834 198 426.667 198 426.5C198 419.596 192.404 414 185.5 414C178.596 414 173 419.596 173 426.5C173 426.667 173.003 426.834 173.01 427H163.99C163.997 426.834 164 426.667 164 426.5C164 419.596 158.404 414 151.5 414C144.596 414 139 419.596 139 426.5C139 426.58 139.001 426.661 139.002 426.741C139.003 426.795 139.005 426.85 139.006 426.905C139.007 426.937 139.009 426.968 139.01 427H129.99C129.997 426.834 130 426.667 130 426.5C130 419.596 124.404 414 117.5 414C110.596 414 105 419.596 105 426.5C105 426.667 105.003 426.834 105.01 427H95.9902C95.9967 426.834 96 426.667 96 426.5C96 419.596 90.4036 414 83.5 414C76.5964 414 71 419.596 71 426.5C71 426.667 71.0033 426.834 71.0098 427H69C60.1634 427 53 419.837 53 411V300.879C53.8225 300.959 54.6565 301 55.5 301H58.5C72.5833 301 84 289.583 84 275.5C84 261.417 72.5833 250 58.5 250H55.5C54.6565 250 53.8225 250.041 53 250.121V38C53 29.8355 59.1152 23.0993 67.0152 22.1219C67.3393 28.7366 72.805 34 79.5 34C86.2361 34 91.7277 28.6718 91.9902 22Z" fill="#D37A7B"/>
<line x1="85" y1="278" x2="282" y2="278" stroke="white" stroke-width="2" stroke-linecap="round" stroke-dasharray="6 6"/>
<defs>
<filter id="filter0_f_578_619" x="0" y="0" width="385" height="540.094" filterUnits="userSpaceOnUse" color-interpolation-filters="sRGB">
<feFlood flood-opacity="0" result="BackgroundImageFix"/>
<feBlend mode="normal" in="SourceGraphic" in2="BackgroundImageFix" result="shape"/>
<feGaussianBlur stdDeviation="32" result="effect1_foregroundBlur_578_619"/>
</filter>
</defs>
</svg>
