<svg width="24" height="24" viewBox="0 0 24 24" fill="none" xmlns="http://www.w3.org/2000/svg">
<path d="M11.9994 3.0791C10.2349 3.0791 8.51009 3.60232 7.043 4.5826C5.57591 5.56288 4.43245 6.95619 3.75722 8.58634C3.08199 10.2165 2.90532 12.0102 3.24955 13.7408C3.59378 15.4714 4.44344 17.061 5.6911 18.3086C6.93876 19.5563 8.52838 20.406 10.2589 20.7502C11.9895 21.0944 13.7832 20.9177 15.4134 20.2425C17.0435 19.5673 18.4368 18.4238 19.4171 16.9567C20.3974 15.4896 20.9206 13.7648 20.9206 12.0004C20.9182 9.63502 19.9776 7.36725 18.305 5.69471C16.6325 4.02216 14.3647 3.08148 11.9994 3.0791ZM15.4831 12.5629H12.5619V15.4841C12.5619 15.6333 12.5026 15.7764 12.3971 15.8818C12.2916 15.9873 12.1486 16.0466 11.9994 16.0466C11.8502 16.0466 11.7071 15.9873 11.6016 15.8818C11.4961 15.7764 11.4369 15.6333 11.4369 15.4841V12.5629H8.51563C8.36644 12.5629 8.22337 12.5036 8.11788 12.3981C8.01239 12.2926 7.95313 12.1495 7.95313 12.0004C7.95313 11.8512 8.01239 11.7081 8.11788 11.6026C8.22337 11.4971 8.36644 11.4379 8.51563 11.4379H11.4369V8.5166C11.4369 8.36742 11.4961 8.22434 11.6016 8.11885C11.7071 8.01336 11.8502 7.9541 11.9994 7.9541C12.1486 7.9541 12.2916 8.01336 12.3971 8.11885C12.5026 8.22434 12.5619 8.36742 12.5619 8.5166V11.4379H15.4831C15.6323 11.4379 15.7754 11.4971 15.8809 11.6026C15.9864 11.7081 16.0456 11.8512 16.0456 12.0004C16.0456 12.1495 15.9864 12.2926 15.8809 12.3981C15.7754 12.5036 15.6323 12.5629 15.4831 12.5629Z" fill="black"/>
</svg>
