<svg width="16" height="22" viewBox="0 0 16 22" fill="none" xmlns="http://www.w3.org/2000/svg">
<path d="M7.815 9.87072C7.715 9.86072 7.595 9.86072 7.485 9.87072C6.3372 9.83175 5.24964 9.34756 4.45263 8.52068C3.65562 7.6938 3.21174 6.58917 3.215 5.44072C3.215 2.99072 5.195 1.00072 7.655 1.00072C8.23741 0.990216 8.81619 1.09453 9.35829 1.3077C9.90039 1.52087 10.3952 1.83874 10.8144 2.24313C11.2337 2.64753 11.5692 3.13055 11.8018 3.66461C12.0344 4.19867 12.1595 4.77331 12.17 5.35572C12.1805 5.93813 12.0762 6.51691 11.863 7.05901C11.6498 7.60111 11.332 8.09592 10.9276 8.51517C10.5232 8.93443 10.0402 9.26993 9.50611 9.50251C8.97205 9.7351 8.39741 9.86022 7.815 9.87072ZM2.815 13.5607C0.395 15.1807 0.395 17.8207 2.815 19.4307C5.565 21.2707 10.075 21.2707 12.825 19.4307C15.245 17.8107 15.245 15.1707 12.825 13.5607C10.085 11.7307 5.575 11.7307 2.815 13.5607Z" stroke="#272741" stroke-width="1.5" stroke-linecap="round" stroke-linejoin="round"/>
</svg>
