<svg width="22" height="22" viewBox="0 0 22 22" fill="none" xmlns="http://www.w3.org/2000/svg">
<path d="M12.2913 11.0002L18.0663 5.23434C18.2389 5.06172 18.3359 4.82761 18.3359 4.5835C18.3359 4.33939 18.2389 4.10528 18.0663 3.93267C17.8937 3.76006 17.6596 3.66309 17.4155 3.66309C17.1714 3.66309 16.9373 3.76006 16.7646 3.93267L10.9988 9.70767L5.23297 3.93267C5.06036 3.76006 4.82625 3.66309 4.58214 3.66309C4.33803 3.66309 4.10392 3.76006 3.9313 3.93267C3.75869 4.10528 3.66172 4.33939 3.66172 4.5835C3.66172 4.82761 3.75869 5.06172 3.9313 5.23434L9.7063 11.0002L3.9313 16.766C3.84539 16.8512 3.77719 16.9526 3.73065 17.0643C3.68412 17.176 3.66016 17.2958 3.66016 17.4168C3.66016 17.5378 3.68412 17.6577 3.73065 17.7694C3.77719 17.8811 3.84539 17.9825 3.9313 18.0677C4.01652 18.1536 4.1179 18.2218 4.22961 18.2683C4.34131 18.3149 4.46113 18.3388 4.58214 18.3388C4.70315 18.3388 4.82296 18.3149 4.93467 18.2683C5.04637 18.2218 5.14776 18.1536 5.23297 18.0677L10.9988 12.2927L16.7646 18.0677C16.8499 18.1536 16.9512 18.2218 17.0629 18.2683C17.1746 18.3149 17.2945 18.3388 17.4155 18.3388C17.5365 18.3388 17.6563 18.3149 17.768 18.2683C17.8797 18.2218 17.9811 18.1536 18.0663 18.0677C18.1522 17.9825 18.2204 17.8811 18.267 17.7694C18.3135 17.6577 18.3375 17.5378 18.3375 17.4168C18.3375 17.2958 18.3135 17.176 18.267 17.0643C18.2204 16.9526 18.1522 16.8512 18.0663 16.766L12.2913 11.0002Z" fill="black"/>
</svg>
