<svg width="9" height="11" viewBox="0 0 9 11" fill="none" xmlns="http://www.w3.org/2000/svg">
<path d="M7.75338 3.88107L7.57837 9.17788C7.56347 9.63152 7.37237 10.0615 7.04564 10.3765C6.7189 10.6916 6.28226 10.8669 5.82837 10.8653H2.50337C2.04978 10.8669 1.61339 10.6919 1.28671 10.3772C0.960022 10.0625 0.768727 9.63296 0.753375 9.17963L0.578375 3.88107C0.574546 3.76503 0.616967 3.65223 0.696307 3.56748C0.775647 3.48272 0.885405 3.43296 1.00144 3.42913C1.11747 3.4253 1.23027 3.46772 1.31503 3.54706C1.39978 3.6264 1.44955 3.73616 1.45337 3.85219L1.62837 9.15032C1.63709 9.37649 1.73311 9.59049 1.89627 9.74737C2.05943 9.90425 2.27703 9.9918 2.50337 9.99163H5.82837C6.05501 9.99178 6.27286 9.90399 6.43607 9.74674C6.59928 9.58949 6.6951 9.37505 6.70337 9.14857L6.87838 3.85219C6.8822 3.73616 6.93197 3.6264 7.01672 3.54706C7.10148 3.46772 7.21428 3.4253 7.33031 3.42913C7.44634 3.43296 7.5561 3.48272 7.63544 3.56748C7.71478 3.65223 7.7572 3.76503 7.75338 3.88107ZM8.33219 2.11838C8.33219 2.23441 8.28609 2.34569 8.20405 2.42774C8.122 2.50979 8.01072 2.55588 7.89469 2.55588H0.4375C0.321468 2.55588 0.210188 2.50979 0.128141 2.42774C0.0460935 2.34569 0 2.23441 0 2.11838C0 2.00235 0.0460935 1.89107 0.128141 1.80902C0.210188 1.72697 0.321468 1.68088 0.4375 1.68088H1.79375C1.93237 1.68125 2.06617 1.63004 2.16912 1.5372C2.27206 1.44437 2.33678 1.31655 2.35069 1.17863C2.38297 0.855092 2.53455 0.555162 2.77589 0.337276C3.01723 0.119391 3.33104 -0.000841448 3.65619 4.43314e-06H4.67556C5.00071 -0.000841448 5.31452 0.119391 5.55586 0.337276C5.7972 0.555162 5.94878 0.855092 5.98106 1.17863C5.99497 1.31655 6.05969 1.44437 6.16263 1.5372C6.26558 1.63004 6.39938 1.68125 6.538 1.68088H7.89425C8.01028 1.68088 8.12156 1.72697 8.20361 1.80902C8.28566 1.89107 8.33175 2.00235 8.33175 2.11838H8.33219ZM3.11019 1.68088H5.22244C5.16495 1.54952 5.12735 1.41032 5.11087 1.26788C5.10004 1.16004 5.04955 1.06006 4.96921 0.987316C4.88887 0.91457 4.78438 0.874237 4.676 0.874129H3.65662C3.54824 0.874237 3.44376 0.91457 3.36341 0.987316C3.28307 1.06006 3.23259 1.16004 3.22175 1.26788C3.20514 1.41035 3.16783 1.54954 3.11019 1.68088ZM3.55075 8.30944V4.58413C3.55075 4.4681 3.50466 4.35682 3.42261 4.27477C3.34056 4.19272 3.22928 4.14663 3.11325 4.14663C2.99722 4.14663 2.88594 4.19272 2.80389 4.27477C2.72184 4.35682 2.67575 4.4681 2.67575 4.58413V8.31119C2.67575 8.42722 2.72184 8.5385 2.80389 8.62055C2.88594 8.7026 2.99722 8.74869 3.11325 8.74869C3.22928 8.74869 3.34056 8.7026 3.42261 8.62055C3.50466 8.5385 3.55075 8.42722 3.55075 8.31119V8.30944ZM5.65688 8.30944V4.58413C5.65688 4.4681 5.61078 4.35682 5.52873 4.27477C5.44669 4.19272 5.33541 4.14663 5.21938 4.14663C5.10334 4.14663 4.99206 4.19272 4.91002 4.27477C4.82797 4.35682 4.78188 4.4681 4.78188 4.58413V8.31119C4.78188 8.42722 4.82797 8.5385 4.91002 8.62055C4.99206 8.7026 5.10334 8.74869 5.21938 8.74869C5.33541 8.74869 5.44669 8.7026 5.52873 8.62055C5.61078 8.5385 5.65688 8.42722 5.65688 8.31119V8.30944Z" fill="#363A4A"/>
</svg>
