<svg width="9" height="10" viewBox="0 0 9 10" fill="none" xmlns="http://www.w3.org/2000/svg">
<path d="M0.53371 8.23482H0.636594L1.76832 8.02668C2.28274 7.9226 2.74571 7.66242 3.10581 7.29816L7.78702 2.61485C8.09567 2.35467 8.25 1.93837 8.25 1.52208C8.25 1.10578 8.09567 0.741524 7.78702 0.429304C7.22116 -0.143101 6.24376 -0.143101 5.62646 0.429304L0.945246 5.06058C0.585152 5.42484 0.327942 5.89317 0.225058 6.41354L0.0192907 7.61038C-0.0321512 7.76649 0.0192908 7.97464 0.173617 8.07871C0.2765 8.18279 0.379384 8.23482 0.53371 8.23482ZM6.34665 1.20986C6.44953 1.10578 6.60386 1.05375 6.70674 1.05375C6.86107 1.05375 6.96395 1.10578 7.06684 1.20986C7.16972 1.31393 7.22116 1.418 7.22116 1.52208C7.22116 1.57411 7.22116 1.73022 7.06684 1.88633L6.86107 2.09448L6.14088 1.418L6.34665 1.20986ZM1.2539 6.67372C1.30534 6.3615 1.45966 6.10131 1.71687 5.84113L5.42069 2.14652L6.14088 2.823L2.43706 6.51761C2.23129 6.72576 1.92264 6.88187 1.61399 6.9339L1.20246 7.03798L1.2539 6.67372ZM7.73558 8.85926H0.53371C0.225058 8.85926 0.0192907 9.06741 0.0192907 9.37963C0.0192907 9.69185 0.225058 9.9 0.53371 9.9H7.73558C8.04423 9.9 8.25 9.69185 8.25 9.37963C8.25 9.06741 8.04423 8.85926 7.73558 8.85926Z" fill="#363A4A"/>
</svg>
