<svg width="26" height="27" viewBox="0 0 26 27" fill="none" xmlns="http://www.w3.org/2000/svg">
<g clip-path="url(#clip0_125_96)">
<path d="M25.9871 13.7432C25.9871 12.678 25.8986 11.9007 25.7072 11.0946H13.2598V15.9024H20.5661C20.4189 17.0972 19.6234 18.8966 17.8557 20.1057L17.8309 20.2666L21.7666 23.246L22.0392 23.2726C24.5434 21.0126 25.9871 17.6874 25.9871 13.7432Z" fill="#4285F4"/>
<path d="M13.2595 26.4106C16.839 26.4106 19.8441 25.259 22.039 23.2726L17.8555 20.1056C16.736 20.8686 15.2334 21.4012 13.2595 21.4012C9.75364 21.4012 6.77806 19.1412 5.71735 16.0176L5.56188 16.0305L1.46953 19.1254L1.41602 19.2708C3.59613 23.5028 8.07427 26.4106 13.2595 26.4106Z" fill="#34A853"/>
<path d="M5.7174 16.0177C5.43753 15.2116 5.27555 14.3478 5.27555 13.4554C5.27555 12.5628 5.43753 11.6992 5.70268 10.8931L5.69526 10.7214L1.55164 7.57678L1.41607 7.6398C0.517533 9.39599 0.00195312 11.3681 0.00195312 13.4554C0.00195312 15.5426 0.517533 17.5146 1.41607 19.2708L5.7174 16.0177Z" fill="#FBBC05"/>
<path d="M13.2595 5.50937C15.749 5.50937 17.4282 6.56018 18.3858 7.43833L22.1273 3.86839C19.8294 1.78115 16.839 0.5 13.2595 0.5C8.07427 0.5 3.59613 3.40773 1.41602 7.63978L5.70263 10.8931C6.77806 7.76938 9.75364 5.50937 13.2595 5.50937Z" fill="#EB4335"/>
</g>
<defs>
<clipPath id="clip0_125_96">
<rect width="26" height="26" fill="white" transform="translate(0 0.5)"/>
</clipPath>
</defs>
</svg>
