<svg width="14" height="14" viewBox="0 0 14 14" fill="none" xmlns="http://www.w3.org/2000/svg">
<path d="M6.9987 8.16634C7.64303 8.16634 8.16536 7.64401 8.16536 6.99967C8.16536 6.35534 7.64303 5.83301 6.9987 5.83301C6.35437 5.83301 5.83203 6.35534 5.83203 6.99967C5.83203 7.64401 6.35437 8.16634 6.9987 8.16634Z" fill="#272741"/>
<path d="M11.0846 8.16634C11.729 8.16634 12.2513 7.64401 12.2513 6.99967C12.2513 6.35534 11.729 5.83301 11.0846 5.83301C10.4403 5.83301 9.91797 6.35534 9.91797 6.99967C9.91797 7.64401 10.4403 8.16634 11.0846 8.16634Z" fill="#272741"/>
<path d="M2.91667 8.16634C3.561 8.16634 4.08333 7.64401 4.08333 6.99967C4.08333 6.35534 3.561 5.83301 2.91667 5.83301C2.27233 5.83301 1.75 6.35534 1.75 6.99967C1.75 7.64401 2.27233 8.16634 2.91667 8.16634Z" fill="#272741"/>
</svg>
