<svg width="32" height="32" viewBox="0 0 32 32" fill="none" xmlns="http://www.w3.org/2000/svg">
<path fill-rule="evenodd" clip-rule="evenodd" d="M7.646 20.735C7.33933 20.691 7.01333 20.6663 6.66667 20.6663C4.11333 20.6663 2.68733 22.0137 2.14067 22.685C2.052 22.8003 2.00467 22.9417 2.00467 23.0877C2.00467 23.0917 2.00466 23.0957 2.004 23.099C2 23.3457 2 23.6723 2 23.9997C2 24.3677 2.29867 24.6663 2.66667 24.6663H7.448C7.37266 24.4543 7.33333 24.229 7.33333 23.9997C7.33333 23.241 7.33333 22.337 7.336 21.803C7.336 21.423 7.44466 21.053 7.646 20.735ZM22.6667 24.6663H9.33333C9.15667 24.6663 8.98667 24.5963 8.862 24.471C8.73667 24.3463 8.66667 24.1763 8.66667 23.9997C8.66667 23.243 8.66667 22.343 8.66933 21.807C8.66933 21.8057 8.66933 21.8043 8.66933 21.803C8.66933 21.6497 8.72267 21.5017 8.81934 21.383C9.64667 20.4383 12.1467 17.9997 16 17.9997C20.3613 17.9997 22.5513 20.4337 23.2213 21.3517C23.2953 21.4643 23.3333 21.5917 23.3333 21.7217V23.9997C23.3333 24.1763 23.2633 24.3463 23.138 24.471C23.0133 24.5963 22.8433 24.6663 22.6667 24.6663ZM24.552 24.6663H29.3333C29.7013 24.6663 30 24.3677 30 23.9997V23.087C30 22.9397 29.9513 22.797 29.862 22.6803C29.3127 22.0137 27.886 20.6663 25.3333 20.6663C25.0047 20.6663 24.6947 20.6883 24.4027 20.7283C24.5753 21.0303 24.6667 21.373 24.6667 21.723V23.9997C24.6667 24.229 24.6273 24.4543 24.552 24.6663ZM6.66667 12.6663C4.82667 12.6663 3.33333 14.1597 3.33333 15.9997C3.33333 17.8397 4.82667 19.333 6.66667 19.333C8.50667 19.333 10 17.8397 10 15.9997C10 14.1597 8.50667 12.6663 6.66667 12.6663ZM25.3333 12.6663C23.4933 12.6663 22 14.1597 22 15.9997C22 17.8397 23.4933 19.333 25.3333 19.333C27.1733 19.333 28.6667 17.8397 28.6667 15.9997C28.6667 14.1597 27.1733 12.6663 25.3333 12.6663ZM16 7.33301C13.4247 7.33301 11.3333 9.42434 11.3333 11.9997C11.3333 14.575 13.4247 16.6663 16 16.6663C18.5753 16.6663 20.6667 14.575 20.6667 11.9997C20.6667 9.42434 18.5753 7.33301 16 7.33301Z" fill="#9D9DB6"/>
</svg>
