<svg width="16" height="11" viewBox="0 0 16 11" fill="none" xmlns="http://www.w3.org/2000/svg">
<path fill-rule="evenodd" clip-rule="evenodd" d="M3.22628 8.50511C3.05105 8.47719 2.86476 8.46154 2.66667 8.46154C1.20762 8.46154 0.392761 9.31658 0.0803804 9.74262C0.0297137 9.81581 0.00266811 9.9055 0.00266811 9.99816C0.00266811 10.0007 0.00266541 10.0032 0.00228446 10.0053C-1.2556e-06 10.1619 0 10.3692 0 10.5769C0 10.8105 0.170667 11 0.380952 11H3.11314C3.07009 10.8655 3.04762 10.7225 3.04762 10.5769C3.04762 10.0955 3.04762 9.52177 3.04914 9.18289C3.04914 8.94173 3.11124 8.70692 3.22628 8.50511ZM11.8095 11H4.19048C4.08952 11 3.99238 10.9556 3.92114 10.876C3.84952 10.7969 3.80952 10.689 3.80952 10.5769C3.80952 10.0967 3.80952 9.52558 3.81105 9.18542C3.81105 9.18458 3.81105 9.18373 3.81105 9.18289C3.81105 9.08558 3.84153 8.99165 3.89676 8.91634C4.36953 8.31684 5.7981 6.76923 8 6.76923C10.4922 6.76923 11.7436 8.31388 12.1265 8.89646C12.1688 8.96796 12.1905 9.04877 12.1905 9.13127V10.5769C12.1905 10.689 12.1505 10.7969 12.0789 10.876C12.0076 10.9556 11.9105 11 11.8095 11ZM12.8869 11H15.619C15.8293 11 16 10.8105 16 10.5769V9.99773C16 9.90423 15.9722 9.81369 15.9211 9.73966C15.6072 9.31658 14.792 8.46154 13.3333 8.46154C13.1455 8.46154 12.9684 8.4755 12.8015 8.50089C12.9002 8.69254 12.9524 8.91 12.9524 9.13212V10.5769C12.9524 10.7225 12.9299 10.8655 12.8869 11ZM2.66667 3.38462C1.61524 3.38462 0.761905 4.33231 0.761905 5.5C0.761905 6.66769 1.61524 7.61538 2.66667 7.61538C3.7181 7.61538 4.57143 6.66769 4.57143 5.5C4.57143 4.33231 3.7181 3.38462 2.66667 3.38462ZM13.3333 3.38462C12.2819 3.38462 11.4286 4.33231 11.4286 5.5C11.4286 6.66769 12.2819 7.61538 13.3333 7.61538C14.3848 7.61538 15.2381 6.66769 15.2381 5.5C15.2381 4.33231 14.3848 3.38462 13.3333 3.38462ZM8 0C6.52838 0 5.33333 1.32719 5.33333 2.96154C5.33333 4.59588 6.52838 5.92308 8 5.92308C9.47162 5.92308 10.6667 4.59588 10.6667 2.96154C10.6667 1.32719 9.47162 0 8 0Z" fill="black"/>
</svg>
