<svg width="36" height="33" viewBox="0 0 36 33" fill="none" xmlns="http://www.w3.org/2000/svg">
<path d="M35.9314 3.8666C34.6073 4.51041 33.1898 4.95334 31.6958 5.15422C33.2201 4.13984 34.3856 2.53531 34.9414 0.623846C33.5115 1.54714 31.9298 2.2159 30.2479 2.59395C28.9069 1.0019 26.9899 0 24.8625 0C20.7844 0 17.4791 3.66447 17.4791 8.18112C17.4791 8.83117 17.55 9.45501 17.6726 10.0464C11.538 9.72826 6.09975 6.4593 2.46263 1.52094C1.82363 2.72371 1.46025 4.12113 1.46025 5.64206C1.46025 8.48805 2.76637 10.9834 4.74075 12.4507C3.53362 12.412 2.39737 12.0415 1.40175 11.4314V11.5299C1.40175 15.4988 3.94425 18.8077 7.31925 19.5613C6.70388 19.7422 6.04688 19.847 5.37975 19.847C4.90613 19.847 4.45388 19.7959 4.00275 19.7036C4.95225 22.9525 7.67025 25.3182 10.9102 25.3893C8.39137 27.579 5.19863 28.8841 1.75837 28.8841C1.17225 28.8841 0.58725 28.8529 0 28.7743C3.28163 31.095 7.155 32.4525 11.3389 32.4525C24.9142 32.4525 32.3325 19.9818 32.3325 9.18177C32.3325 8.8374 32.3325 8.4868 32.3089 8.13495C33.7567 6.99082 35.01 5.541 36 3.89779L35.9314 3.8666Z" fill="white"/>
</svg>
