<svg width="14" height="17" viewBox="0 0 14 17" fill="none" xmlns="http://www.w3.org/2000/svg">
<path d="M6.99717 0C5.85076 0 4.51099 0.358233 3.41523 1.28964C2.31947 2.22104 1.51837 3.76021 1.51837 5.88737C1.51837 8.13806 2.83512 10.3319 4.08972 12.0144C5.34432 13.6993 6.59892 14.8778 6.59892 14.8778C6.82912 15.0952 7.17212 15.0952 7.40232 14.8778C7.40232 14.8778 8.65692 13.6993 9.91152 12.0144C11.1661 10.3319 12.4829 8.13806 12.4829 5.88737C12.4829 3.75774 11.6818 2.22104 10.586 1.28964C9.49025 0.358233 8.14357 0 6.99717 0ZM6.99717 1.3094C7.90646 1.3094 9.00453 1.60834 9.82865 2.31245C10.6574 3.0141 11.2651 4.09374 11.2651 5.88737C11.2651 7.55748 10.1647 9.62782 8.96309 11.1942C7.9433 12.5233 7.46908 12.9903 7.00177 13.4918C6.56439 13.0076 6.005 12.4739 5.03815 11.1942C3.84571 9.61793 2.73614 7.55748 2.73614 5.88737C2.73614 4.09374 3.34387 3.0141 4.17029 2.31245C4.99902 1.60834 6.09017 1.3094 6.99717 1.3094ZM6.99717 2.62869C5.3236 2.62869 3.9539 4.10362 3.9539 5.90219C3.9539 7.6983 5.3236 9.16829 6.99717 9.16829C8.67304 9.16829 10.0473 7.6983 10.0473 5.90219C10.0443 5.03501 9.72198 4.20427 9.15062 3.59107C8.57925 2.97787 7.80519 2.63194 6.99717 2.62869ZM6.99717 3.93809C8.01466 3.93809 8.82957 4.8102 8.82957 5.90219C8.83019 6.16017 8.78314 6.41572 8.69116 6.65406C8.59918 6.8924 8.46408 7.1088 8.29368 7.29076C8.12328 7.47272 7.92096 7.61661 7.69842 7.71413C7.47588 7.81165 7.23754 7.86085 6.99717 7.85889C6.7574 7.8602 6.51977 7.81048 6.29802 7.71261C6.07627 7.61474 5.8748 7.47066 5.70525 7.2887C5.53571 7.10675 5.40146 6.89052 5.31027 6.65254C5.21908 6.41455 5.17275 6.15952 5.17397 5.90219C5.17245 5.64443 5.21852 5.3889 5.30952 5.15035C5.40052 4.9118 5.53465 4.69496 5.70416 4.51235C5.87367 4.32974 6.07521 4.18497 6.29714 4.08641C6.51907 3.98784 6.75699 3.93743 6.99717 3.93809ZM3.94009 13.2299C3.92696 13.2319 3.91391 13.2343 3.90096 13.2373C2.5796 13.3831 1.57822 13.5956 0.901428 13.9118C0.563032 14.0699 0.256864 14.2231 0.0727024 14.6505C-0.0200803 14.885 -0.0242082 15.149 0.0611923 15.3867C0.146367 15.6115 0.289092 15.7622 0.434119 15.8808C1.01423 16.3502 1.84526 16.5355 2.97785 16.7159C4.11044 16.8962 5.50776 17 6.99717 17C8.48887 17 9.8839 16.8962 11.0165 16.7159C12.1514 16.5355 12.9847 16.3502 13.5671 15.8808C13.7312 15.7579 13.8603 15.5886 13.94 15.3917C14.0245 15.1519 14.0196 14.8864 13.9262 14.6505C13.7421 14.2206 13.4382 14.0699 13.0975 13.9093C12.423 13.5956 11.4262 13.3831 10.1049 13.2373C9.32911 13.1681 9.14265 14.3861 9.97828 14.5393C11.0349 14.6554 11.9212 14.8407 12.4322 15.0334C12.0777 15.1718 11.5575 15.3077 10.8369 15.4213C9.78261 15.5893 8.43593 15.6931 6.99717 15.6931C5.56071 15.6931 4.21403 15.5893 3.15971 15.4213C2.61616 15.348 2.08041 15.2189 1.55981 15.0359C2.36384 14.7847 3.1888 14.6184 4.02296 14.5393C4.81716 14.4108 4.70896 13.2373 3.94009 13.2299Z" fill="black"/>
</svg>
