<svg width="257" height="405" viewBox="0 0 257 405" fill="none" xmlns="http://www.w3.org/2000/svg">
<path fill-rule="evenodd" clip-rule="evenodd" d="M38.9902 0H48.0098C48.2723 6.67177 53.7639 12 60.5 12C67.2361 12 72.7277 6.67177 72.9902 0H82.0098C82.2723 6.67177 87.7639 12 94.5 12C101.236 12 106.728 6.67177 106.99 0H116.01C116.272 6.67177 121.764 12 128.5 12C135.236 12 140.728 6.67177 140.99 0H150.01C150.272 6.67177 155.764 12 162.5 12C169.236 12 174.728 6.67177 174.99 0H184.01C184.272 6.67177 189.764 12 196.5 12C203.236 12 208.728 6.67177 208.99 0H218.01C218.272 6.67177 223.764 12 230.5 12C237.195 12 242.661 6.73655 242.985 0.1219C250.885 1.09934 257 7.83553 257 16V229H255.5C241.417 229 230 240.417 230 254.5C230 268.583 241.417 280 255.5 280H257V389C257 395.721 252.856 401.474 246.983 403.844C246.642 397.245 241.183 392 234.5 392C227.596 392 222 397.596 222 404.5C222 404.667 222.003 404.834 222.01 405H212.99C212.997 404.834 213 404.667 213 404.5C213 397.596 207.404 392 200.5 392C193.596 392 188 397.596 188 404.5L188 404.558C188 404.59 188.001 404.621 188.001 404.652C188.001 404.684 188.002 404.716 188.002 404.748C188.004 404.832 188.007 404.916 188.01 405H178.99C178.997 404.834 179 404.667 179 404.5C179 397.596 173.404 392 166.5 392C159.596 392 154 397.596 154 404.5C154 404.667 154.003 404.834 154.01 405H144.99C144.997 404.834 145 404.667 145 404.5C145 397.596 139.404 392 132.5 392C125.596 392 120 397.596 120 404.5C120 404.667 120.003 404.834 120.01 405H110.99C110.997 404.834 111 404.667 111 404.5C111 397.596 105.404 392 98.5 392C91.5964 392 86 397.596 86 404.5C86 404.58 86.0008 404.661 86.0023 404.741C86.0033 404.795 86.0047 404.85 86.0064 404.905C86.0074 404.937 86.0086 404.968 86.0098 405H76.9902C76.9967 404.834 77 404.667 77 404.5C77 397.596 71.4036 392 64.5 392C57.5964 392 52 397.596 52 404.5C52 404.667 52.0033 404.834 52.0098 405H42.9902C42.9967 404.834 43 404.667 43 404.5C43 397.596 37.4036 392 30.5 392C23.5964 392 18 397.596 18 404.5C18 404.667 18.0033 404.834 18.0098 405H16C7.16344 405 0 397.837 0 389V278.879C0.822514 278.959 1.65647 279 2.5 279H5.5C19.5833 279 31 267.583 31 253.5C31 239.417 19.5833 228 5.5 228H2.5C1.65647 228 0.822514 228.041 0 228.121V16C0 7.83552 6.11522 1.09934 14.0152 0.1219C14.3393 6.73655 19.805 12 26.5 12C33.2361 12 38.7277 6.67177 38.9902 0Z" fill="#A5A4FF"/>
</svg>
